# xmcd
#
# Track frame offsets:
#	150
#	19281
#	29945
#	41397
#	52479
#	63784
#	79572
#	99220
#	114194
#	124363
#	138599
#
# Disc length: 2071 seconds
# Revision: 0
# Processed by: cddbd v1.5.2PL0 Copyright (c) Steve Scherf et al.
# Submitted via: dBpowerAMP V12.0
#
DISCID=9608150b
DTITLE=Spanky Wilson - Spankin' Brand New
DYEAR=1900
DGENRE=
TTITLE0=You're Gonna Miss Me
TTITLE1=I've Waited a Long Long Time
TTITLE2=Love Has Me By The Hand
TTITLE3=The Other Girl
TTITLE4=Mighty Great Feeling
TTITLE5=Love Is Like An Old Man
TTITLE6=On The Morning After
TTITLE7=Sweetheart
TTITLE8=Apartment 101
TTITLE9=Tell Me Tonight
TTITLE10=The Last Day of Summer
EXTD=
EXTT0=
EXTT1=
EXTT2=
EXTT3=
EXTT4=
EXTT5=
EXTT6=
EXTT7=
EXTT8=
EXTT9=
EXTT10=
PLAYORDER=
